<svg baseProfile="full" height="180" version="1.1" width="120" viewBox="0 0 200 300" xmlns="http://www.w3.org/2000/svg" xmlns:ev="http://www.w3.org/2001/xml-events" xmlns:xlink="http://www.w3.org/1999/xlink">
  <defs />
  <g transform="rotate(-10, 120, 220)">
    <rect fill="white" height="150" rx="10" ry="10" stroke="black" stroke-width="2" width="100" x="20.0" y="45.0" />
    <line stroke="black" stroke-width="1.5" x1="21" x2="66" y1="56" y2="42" />
    <line stroke="black" stroke-width="1.5" x1="21" x2="83" y1="65" y2="42" />
    <line stroke="black" stroke-width="1.5" x1="21" x2="95" y1="75" y2="42" />
    <line stroke="black" stroke-width="1.5" x1="21" x2="100" y1="85" y2="42" />
    <line stroke="black" stroke-width="1.5" x1="21" x2="107" y1="95" y2="42" />
    <line stroke="black" stroke-width="1.5" x1="21" x2="115" y1="105" y2="42" />
    <line stroke="black" stroke-width="1.5" x1="21" x2="120" y1="115" y2="50" />
    <line stroke="black" stroke-width="1.5" x1="21" x2="120" y1="125" y2="60" />
    <line stroke="black" stroke-width="1.5" x1="21" x2="120" y1="135" y2="70" />
    <line stroke="black" stroke-width="1.5" x1="21" x2="120" y1="145" y2="80" />
    <line stroke="black" stroke-width="1.5" x1="21" x2="120" y1="155" y2="90" />
    <line stroke="black" stroke-width="1.5" x1="21" x2="120" y1="165" y2="100" />
    <line stroke="black" stroke-width="1.5" x1="21" x2="120" y1="175" y2="110" />
    <line stroke="black" stroke-width="1.5" x1="23" x2="120" y1="182" y2="121" />
    <line stroke="black" stroke-width="1.5" x1="32" x2="120" y1="185" y2="133" />
    <line stroke="black" stroke-width="1.5" x1="46" x2="120" y1="185" y2="145" />
    <line stroke="black" stroke-width="1.5" x1="60" x2="120" y1="185" y2="152" />
    <line stroke="black" stroke-width="1.5" x1="70" x2="120" y1="185" y2="160" />
    <line stroke="black" stroke-width="1.5" x1="85" x2="120" y1="185" y2="168" />
  </g>
  <g>
    <rect fill="white" height="150" rx="10" ry="10" stroke="black" stroke-width="2" width="100" x="20.0" y="45.0" />
    <text fill="black" font-family="Arial, sans-serif" font-size="12" font-weight="bold" text-anchor="middle">
      <tspan x="32.0" y="63.0">H</tspan>
      <tspan x="32.0" y="77.0">i</tspan>
      <tspan x="32.0" y="91.0">d</tspan>
      <tspan x="32.0" y="105.0">d</tspan>
      <tspan x="32.0" y="119.0">e</tspan>
      <tspan x="32.0" y="133.0">n</tspan>
      <tspan x="32.0" y="147.0">P</tspan>
      <tspan x="32.0" y="161.0">a</tspan>
      <tspan x="32.0" y="175.0">i</tspan>
      <tspan x="32.0" y="189.0">r</tspan>
    </text>
    <text fill="black" font-family="Arial, sans-serif" font-size="12" font-weight="bold" text-anchor="middle" transform="rotate(180 112 121)">
      <tspan x="115.0" y="65.0">H</tspan>
      <tspan x="115.0" y="79.0">i</tspan>
      <tspan x="115.0" y="93.0">d</tspan>
      <tspan x="115.0" y="107.0">d</tspan>
      <tspan x="115.0" y="121.0">e</tspan>
      <tspan x="115.0" y="135.0">n</tspan>
      <tspan x="115.0" y="149.0">P</tspan>
      <tspan x="115.0" y="163.0">a</tspan>
      <tspan x="115.0" y="177.0">I</tspan>
      <tspan x="115.0" y="191.0">r</tspan>
    </text>
  </g>
  <text fill="black" font-family="Arial, sans-serif" font-size="40" font-weight="bold" text-anchor="middle" x="70" y="130">♠</text>
</svg>