<svg baseProfile="full" height="300" version="1.1" width="200" viewBox="50 75 100 150" xmlns="http://www.w3.org/2000/svg" xmlns:ev="http://www.w3.org/2001/xml-events" xmlns:xlink="http://www.w3.org/1999/xlink">
  <defs />
  <g transform="rotate(-10, 150, 250)">
    <rect fill="white" height="150" rx="10" ry="10" stroke="black" stroke-width="2" width="100" x="50.0" y="75.0" />
    <line stroke="black" stroke-width="1.5" x1="51" x2="96" y1="86" y2="72" />
    <line stroke="black" stroke-width="1.5" x1="51" x2="113" y1="95" y2="72" />
    <line stroke="black" stroke-width="1.5" x1="51" x2="125" y1="105" y2="72" />
    <line stroke="black" stroke-width="1.5" x1="51" x2="130" y1="115" y2="72" />
    <line stroke="black" stroke-width="1.5" x1="51" x2="137" y1="125" y2="72" />
    <line stroke="black" stroke-width="1.5" x1="51" x2="145" y1="135" y2="72" />
    <line stroke="black" stroke-width="1.5" x1="51" x2="150" y1="145" y2="80" />
    <line stroke="black" stroke-width="1.5" x1="51" x2="150" y1="155" y2="90" />
    <line stroke="black" stroke-width="1.5" x1="51" x2="150" y1="165" y2="100" />
    <line stroke="black" stroke-width="1.5" x1="51" x2="150" y1="175" y2="110" />
    <line stroke="black" stroke-width="1.5" x1="51" x2="150" y1="185" y2="120" />
    <line stroke="black" stroke-width="1.5" x1="51" x2="150" y1="195" y2="130" />
    <line stroke="black" stroke-width="1.5" x1="51" x2="150" y1="205" y2="140" />
    <line stroke="black" stroke-width="1.5" x1="51" x2="150" y1="215" y2="150" />
    <line stroke="black" stroke-width="1.5" x1="53" x2="150" y1="222" y2="161" />
    <line stroke="black" stroke-width="1.5" x1="62" x2="150" y1="225" y2="173" />
    <line stroke="black" stroke-width="1.5" x1="76" x2="150" y1="225" y2="185" />
    <line stroke="black" stroke-width="1.5" x1="90" x2="150" y1="225" y2="192" />
    <line stroke="black" stroke-width="1.5" x1="100" x2="150" y1="225" y2="200" />
    <line stroke="black" stroke-width="1.5" x1="115" x2="150" y1="225" y2="208" />
  </g>
  <g>
    <rect fill="white" height="150" rx="10" ry="10" stroke="black" stroke-width="2" width="100" x="50.0" y="75.0" />
    <text fill="black" font-family="Arial, sans-serif" font-size="12" font-weight="bold" text-anchor="middle">
      <tspan x="62.0" y="93.0">H</tspan>
      <tspan x="62.0" y="107.0">i</tspan>
      <tspan x="62.0" y="121.0">d</tspan>
      <tspan x="62.0" y="135.0">d</tspan>
      <tspan x="62.0" y="149.0">e</tspan>
      <tspan x="62.0" y="163.0">n</tspan>
      <tspan x="62.0" y="177.0">P</tspan>
      <tspan x="62.0" y="191.0">a</tspan>
      <tspan x="62.0" y="205.0">i</tspan>
      <tspan x="62.0" y="219.0">r</tspan>
    </text>
    <text fill="black" font-family="Arial, sans-serif" font-size="12" font-weight="bold" text-anchor="middle" transform="rotate(180 142 151)">
      <tspan x="145.0" y="95.0">H</tspan>
      <tspan x="145.0" y="109.0">i</tspan>
      <tspan x="145.0" y="123.0">d</tspan>
      <tspan x="145.0" y="137.0">d</tspan>
      <tspan x="145.0" y="151.0">e</tspan>
      <tspan x="145.0" y="165.0">n</tspan>
      <tspan x="145.0" y="179.0">P</tspan>
      <tspan x="145.0" y="193.0">a</tspan>
      <tspan x="145.0" y="207.0">i</tspan>
      <tspan x="145.0" y="221.0">r</tspan>
    </text>
  </g>
  <text fill="black" font-family="Arial, sans-serif" font-size="40" font-weight="bold" text-anchor="middle" x="100" y="160">♠</text>
</svg>