<?xml version="1.0" encoding="utf-8" ?>
<svg baseProfile="full" height="150" version="1.1" width="100" xmlns="http://www.w3.org/2000/svg" xmlns:ev="http://www.w3.org/2001/xml-events" xmlns:xlink="http://www.w3.org/1999/xlink"><defs /><rect fill="white" height="150" rx="10" ry="10" stroke="black" stroke-width="2" width="100" x="0" y="0" /><line stroke="lightgrey" stroke-width="1.5" x1="0" x2="0" y1="0" y2="0" /><line stroke="lightgrey" stroke-width="1.5" x1="10" x2="0" y1="0" y2="10" /><line stroke="lightgrey" stroke-width="1.5" x1="20" x2="0" y1="0" y2="20" /><line stroke="lightgrey" stroke-width="1.5" x1="30" x2="0" y1="0" y2="30" /><line stroke="lightgrey" stroke-width="1.5" x1="40" x2="0" y1="0" y2="40" /><line stroke="lightgrey" stroke-width="1.5" x1="50" x2="0" y1="0" y2="50" /><line stroke="lightgrey" stroke-width="1.5" x1="60" x2="0" y1="0" y2="60" /><line stroke="lightgrey" stroke-width="1.5" x1="70" x2="0" y1="0" y2="70" /><line stroke="lightgrey" stroke-width="1.5" x1="80" x2="0" y1="0" y2="80" /><line stroke="lightgrey" stroke-width="1.5" x1="90" x2="0" y1="0" y2="90" /><line stroke="lightgrey" stroke-width="1.5" x1="100" x2="0" y1="0" y2="100" /><line stroke="lightgrey" stroke-width="1.5" x1="100" x2="0" y1="10" y2="110" /><line stroke="lightgrey" stroke-width="1.5" x1="100" x2="0" y1="20" y2="120" /><line stroke="lightgrey" stroke-width="1.5" x1="100" x2="0" y1="30" y2="130" /><line stroke="lightgrey" stroke-width="1.5" x1="100" x2="0" y1="40" y2="140" /><line stroke="lightgrey" stroke-width="1.5" x1="100" x2="0" y1="50" y2="150" /><line stroke="lightgrey" stroke-width="1.5" x1="100" x2="10" y1="60" y2="150" /><line stroke="lightgrey" stroke-width="1.5" x1="100" x2="20" y1="70" y2="150" /><line stroke="lightgrey" stroke-width="1.5" x1="100" x2="30" y1="80" y2="150" /><line stroke="lightgrey" stroke-width="1.5" x1="100" x2="40" y1="90" y2="150" /><line stroke="lightgrey" stroke-width="1.5" x1="100" x2="50" y1="100" y2="150" /><line stroke="lightgrey" stroke-width="1.5" x1="100" x2="60" y1="110" y2="150" /><line stroke="lightgrey" stroke-width="1.5" x1="100" x2="70" y1="120" y2="150" /><line stroke="lightgrey" stroke-width="1.5" x1="100" x2="80" y1="130" y2="150" /><line stroke="lightgrey" stroke-width="1.5" x1="100" x2="90" y1="140" y2="150" /></svg>